<?xml version="1.0" standalone="no"?><!DOCTYPE svg PUBLIC "-//W3C//DTD SVG 1.1//EN" "http://www.w3.org/Graphics/SVG/1.1/DTD/svg11.dtd"><svg t="1628401792583" class="icon" viewBox="0 0 1024 1024" version="1.1" xmlns="http://www.w3.org/2000/svg" p-id="6544" xmlns:xlink="http://www.w3.org/1999/xlink" width="200" height="200"><defs><style type="text/css"></style></defs><path d="M958.4 361.6c-5.6-18.4-47.2-119.2-56-139.2-0.8-0.8-0.8-1.6-1.6-3.2l-5.6-10.4c-26.4-53.6-61.6-126.4-149.6-116.8H264.8c-92-10.4-131.2 75.2-154.4 126.4l-0.8 2.4c-0.8 1.6-1.6 3.2-2.4 5.6-4 12.8-38.4 122.4-44 140.8-14.4 53.6-4 108.8 31.2 154.4 0 2.4-0.8 4.8-0.8 7.2v256.8c0 89.6 72.8 162.4 162.4 162.4h513.6c89.6 0 162.4-72.8 162.4-162.4V538.4l0.8-0.8c35.2-48.8 45.6-115.2 25.6-176zM156 392.8c3.2-12 26.4-86.4 41.6-134.4 26.4-57.6 38.4-72.8 57.6-70.4 2.4 0 4 0.8 6.4 0.8h488.8c2.4 0 4 0 6.4-0.8 16.8-2.4 25.6 5.6 53.6 63.2l4.8 9.6c23.2 56.8 48.8 120.8 52 130.4 10.4 32 5.6 65.6-12.8 90.4-17.6 24-44.8 36.8-76.8 36.8-18.4 0-44.8-19.2-65.6-34.4-5.6-4-10.4-8-16-11.2-17.6-12.8-41.6-11.2-58.4 2.4-24.8 20.8-65.6 44-104 43.2-40-0.8-80.8-22.4-105.6-43.2-8.8-7.2-20-11.2-30.4-11.2-9.6 0-19.2 3.2-27.2 8.8-4.8 3.2-10.4 7.2-16 11.2-20.8 15.2-47.2 34.4-65.6 34.4-46.4 0-92-21.6-117.6-54.4-16.8-22.4-22.4-46.4-15.2-71.2z m613.6 458.4H256c-36.8 0-66.4-29.6-66.4-66.4V594.4c30.4 12.8 64.8 20 98.4 20 43.2 0 79.2-21.6 108.8-43.2 31.2 20 79.2 42.4 135.2 43.2h2.4c55.2 0 103.2-23.2 133.6-43.2 29.6 20.8 65.6 43.2 108.8 43.2 20 0 40-3.2 58.4-8.8v180c0 36-29.6 65.6-65.6 65.6z" p-id="6545" fill="#f07fa5"></path></svg>