<?xml version="1.0" standalone="no"?><!DOCTYPE svg PUBLIC "-//W3C//DTD SVG 1.1//EN" "http://www.w3.org/Graphics/SVG/1.1/DTD/svg11.dtd"><svg t="1628400924633" class="icon" viewBox="0 0 1024 1024" version="1.1" xmlns="http://www.w3.org/2000/svg" p-id="3389" xmlns:xlink="http://www.w3.org/1999/xlink" width="200" height="200"><defs><style type="text/css"></style></defs><path d="M509.575 528.842c-46.447 0-88.74-21.878-115.346-58.43-24.388 27.48-59.849 43.61-97.441 42.809-68.979-1.171-125.096-59.718-125.096-130.501V248.712c0-39.681 32.282-71.962 71.955-71.962h531.857c39.674 0 71.955 32.282 71.955 71.962v137.231c0 70.194-57.106 127.3-127.293 127.3-36.64 0-71.293-15.97-95.222-42.86-26.608 36.567-68.915 58.459-115.369 58.459zM395.327 397.803c0.487 0 0.975 0.007 1.47 0.022 16.21 0.546 30.725 9.982 37.884 24.628 14.1 28.862 42.795 46.789 74.894 46.789 32.092 0 60.787-17.92 74.887-46.76 7.137-14.587 21.572-24.009 37.68-24.577 16.094-0.473 31.241 7.821 39.404 21.907 12.107 20.866 34.566 33.831 58.619 33.831 37.323 0 67.692-30.368 67.692-67.699V248.712c0-6.817-5.544-12.361-12.354-12.361H243.647c-6.81 0-12.354 5.544-12.354 12.361V382.72c0 38.473 29.837 70.289 66.506 70.915 0.386 0 0.771 0.007 1.15 0.007 24.235 0 46.687-12.958 58.786-34.035 7.792-13.547 22.095-21.804 37.592-21.804zM770.883 852.524H248.31c-42.234 0-76.597-34.362-76.597-76.597V580.935c0-16.457 13.343-29.801 29.801-29.801s29.801 13.343 29.801 29.801v194.992c0 9.371 7.625 16.996 16.996 16.996h522.573c9.371 0 16.996-7.625 16.996-16.996V588.735c0-16.457 13.343-29.801 29.801-29.801s29.801 13.343 29.801 29.801v187.192c-0.002 42.235-34.364 76.597-76.599 76.597z" fill="#000000" p-id="3390"></path></svg>